<svg width="192" height="106" viewBox="0 0 192 106" fill="none" xmlns="http://www.w3.org/2000/svg">
<path d="M65.3391 48.6834V56.9753C65.3391 61.4057 61.7469 65 57.3143 65H52.519C51.9196 65 51.4331 64.5135 51.4331 63.9141V62.6089C51.4331 62.0095 51.9196 61.523 52.519 61.523H57.336C59.8357 61.523 61.862 59.4967 61.862 56.997V48.6617C61.862 46.7766 60.7109 45.163 59.0735 44.4832C58.6609 44.3116 58.3828 43.9185 58.3828 43.4733V42.0877C58.3828 41.3493 59.1038 40.8259 59.8075 41.054C63.0196 42.1008 65.3391 45.1239 65.3391 48.6834Z" fill="url(#paint0_linear_310_2376)"/>
<path d="M54.9037 42.0859V43.3911C54.9037 43.9905 54.4173 44.477 53.8179 44.477H49.0008C46.5033 44.477 44.477 46.5033 44.477 49.003V57.3383C44.477 59.2212 45.6281 60.8392 47.2656 61.5168C47.6782 61.6884 47.9563 62.0815 47.9563 62.5289V63.9123C47.9563 64.6507 47.2352 65.1741 46.5316 64.9461C43.3216 63.8971 41 60.8761 41 57.3166V49.0247C41 44.5943 44.5921 41 49.0248 41H53.8179C54.4173 41 54.9037 41.4865 54.9037 42.0859Z" fill="url(#paint1_linear_310_2376)"/>
<path d="M58.3504 57.2567L57.4274 58.1797C57.0038 58.6054 56.3154 58.6054 55.8919 58.1797L47.9888 50.2788C47.5653 49.8531 47.5653 49.1668 47.9888 48.7433L48.9118 47.8203C49.3352 47.3946 50.0237 47.3946 50.4472 47.8203L58.3504 55.7212C58.7738 56.1469 58.7738 56.8332 58.3504 57.2567Z" fill="url(#paint2_linear_310_2376)"/>
<path d="M107.484 44.3433H101.639C98.5143 44.3433 95.9797 46.8756 95.9797 50.0008V55.9992C95.9797 59.1244 98.5143 61.6567 101.639 61.6567H107.484C110.609 61.6567 113.143 59.1244 113.143 55.9992V50.0008C113.143 46.8756 110.609 44.3433 107.484 44.3433ZM110.691 56.0144C110.691 57.7779 109.262 59.2048 107.499 59.2048H101.622C99.8607 59.2048 98.4317 57.7779 98.4317 56.0144V49.9856C98.4317 48.2221 99.8607 46.7952 101.622 46.7952H107.499C109.262 46.7952 110.691 48.2221 110.691 49.9856V56.0144Z" fill="#F9F9F9"/>
<path d="M92.5028 50.1854V60.8206C92.5028 61.1811 92.2117 61.4721 91.8512 61.4721H90.7023C90.3418 61.4721 90.0508 61.1811 90.0508 60.8206V50.1702C90.0508 48.4067 88.6218 46.9798 86.8605 46.9798H80.9814C79.2201 46.9798 77.7911 48.4067 77.7911 50.1702V60.8206C77.7911 61.1811 77.5001 61.4721 77.1395 61.4721H75.9906C75.6302 61.4721 75.3391 61.1811 75.3391 60.8206V50.1876C75.3391 47.0602 77.8737 44.5279 80.9988 44.5279H86.8452C89.9704 44.5279 92.5028 47.0602 92.5028 50.1854Z" fill="#F9F9F9"/>
<path d="M150.433 45.384V57.2136C150.433 58.8794 149.477 60.3128 147.937 60.9491C146.398 61.5876 144.708 61.251 143.531 60.0739L134.153 50.6983C134.153 50.6961 134.151 50.6961 134.151 50.694L132.066 48.6112C131.812 48.3549 131.812 47.9423 132.066 47.6882L132.878 46.876C133.132 46.6219 133.545 46.6219 133.801 46.876L134.203 47.2799C134.205 47.2799 134.205 47.2821 134.207 47.2821L145.264 58.3386C145.961 59.0379 146.769 58.7795 146.999 58.6839C147.229 58.5884 147.983 58.2018 147.983 57.2136V48.3332L147.981 48.3311V45.384C147.981 45.0234 148.274 44.7324 148.632 44.7324H149.781C150.142 44.7324 150.433 45.0234 150.433 45.384Z" fill="#F9F9F9"/>
<path d="M134.989 58.3139L134.177 59.1262C133.923 59.3803 133.51 59.3803 133.256 59.1262L132.848 58.7179L121.789 47.6613C121.092 46.962 120.284 47.2205 120.054 47.316C119.823 47.4116 119.072 47.7982 119.072 48.7863V60.616C119.072 60.9765 118.779 61.2676 118.421 61.2676H117.272C116.911 61.2676 116.62 60.9765 116.62 60.616V48.7863C116.62 47.1206 117.576 45.6872 119.116 45.0509C120.655 44.4124 122.345 44.749 123.524 45.9261L132.902 55.306C132.904 55.306 132.904 55.3082 132.904 55.3082L134.989 57.3909C135.243 57.6472 135.243 58.0577 134.989 58.3139Z" fill="#F9F9F9"/>
<defs>
<linearGradient id="paint0_linear_310_2376" x1="41.9643" y1="38.4396" x2="67.8066" y2="64.282" gradientUnits="userSpaceOnUse">
<stop stop-color="#9DDB3F"/>
<stop offset="1" stop-color="#7ABF0D"/>
</linearGradient>
<linearGradient id="paint1_linear_310_2376" x1="38.6091" y1="41.7949" x2="64.4515" y2="67.6373" gradientUnits="userSpaceOnUse">
<stop stop-color="#A9EB45"/>
<stop offset="1" stop-color="#7ABF0D"/>
</linearGradient>
<linearGradient id="paint2_linear_310_2376" x1="40.2868" y1="40.1172" x2="66.1291" y2="65.9596" gradientUnits="userSpaceOnUse">
<stop stop-color="#A9EB45"/>
<stop offset="1" stop-color="#7ABF0D"/>
</linearGradient>
</defs>
</svg>
